<svg xmlns="http://www.w3.org/2000/svg" id="Layer_1" data-name="Layer 1" viewBox="0 0 967 352.48"><defs><style>.cls-1,.cls-2,.cls-3{fill-rule:evenodd;}.cls-1{fill:#ffffff;}.cls-2{fill:#ffffff;}.cls-3{fill:#fff;}</style></defs><title>cs-new-logo-white</title><path class="cls-1" d="M55.13,247.27v12.24H34.29a44.4,44.4,0,0,1-9.08-.69q-11-2.47-15.63-14.17-3-7.83-3-19.37,0-13.87,4.67-22.58a21.1,21.1,0,0,1,9-9.14c3.8-1.92,8.68-2.88,14.67-2.88H55.13V203H36.36c-5.7,0-9.86,1.74-12.54,5.23q-3.3,4.35-3.29,15.74c0,10.17,1.69,16.83,5.14,20,2.38,2.21,6.12,3.32,11.17,3.32Z"/><path class="cls-1" d="M100.2,221.16h17.88c3,0,5.07-.51,6.34-1.54,1.89-1.53,2.83-4.19,2.83-8q0-6.33-4.27-8.09a13.54,13.54,0,0,0-4.9-.61H100.2Zm0,12.24v26.11H87.47V190.7H116.7c8.32,0,14.17,1.23,17.49,3.69a16.53,16.53,0,0,1,5.21,6.53,21.3,21.3,0,0,1,1.87,9c0,6.58-1.44,11.6-4.31,15.15A16.84,16.84,0,0,1,129.9,230a17,17,0,0,1,5.3,3,14.44,14.44,0,0,1,3.25,4.72A20.41,20.41,0,0,1,140,242.4a58.83,58.83,0,0,1,.78,6.76,51.67,51.67,0,0,0,1.45,10.35H127.92a65.92,65.92,0,0,1-1.29-9.75,32.44,32.44,0,0,0-1.89-9.22,11.08,11.08,0,0,0-4.21-5c-2.3-1.43-5.68-2.13-10.06-2.11Z"/><path class="cls-1" d="M188.08,229.35,166,190.7h14.89q6.84,13.45,13.71,26.93l14.49-26.93h15.1Q212.52,210.32,200.84,230v29.56H188.08Z"/><path class="cls-1" d="M251.26,259.51V247.27H278.5c4.41,0,7.35-.51,8.81-1.51a7.24,7.24,0,0,0,3.16-6.48c0-3.31-1.22-5.76-3.69-7.3-1.43-.9-3.65-1.32-6.77-1.32H268.95c-6.72,0-11.59-1.4-14.53-4.24a17.94,17.94,0,0,1-4.39-6.74,23.87,23.87,0,0,1-1.56-8.66,25,25,0,0,1,3.65-13.28q3.57-5.8,11.48-6.77c1.76-.19,4.41-.29,7.93-.29h29.6V203H274.43a36.93,36.93,0,0,0-7.95.6c-2.68.78-4,3.12-4,7,0,3.29,1.11,5.52,3.36,6.66,1.52.78,4,1.17,7.5,1.17h9.58c4.9,0,8.54.49,11,1.46a14.53,14.53,0,0,1,8.71,8.67,29.72,29.72,0,0,1,1.91,10.67A24.53,24.53,0,0,1,302,250.47c-2.29,4.7-5.83,7.49-10.51,8.4a57.89,57.89,0,0,1-10.23.65Z"/><polygon class="cls-1" points="349.75 202.95 330.69 202.95 330.69 190.7 382.23 190.7 382.23 202.95 362.5 202.95 362.5 259.52 349.75 259.52 349.75 202.95"/><path class="cls-1" d="M430.84,207.3q-4.27,12-8.55,24h17c-2.81-8-5.66-16-8.48-24m-32.08,52.22q12.36-34.39,24.73-68.82h14.67q12.36,34.42,24.74,68.82H448c-1.91-5.3-3.87-10.64-5.79-15.95H419.45c-1.92,5.31-3.85,10.65-5.75,15.95Z"/><path class="cls-1" d="M492,190.7H504.7v38.65c.18,4.89.35,8.15.58,9.77.41,3.12,1.71,5.26,3.91,6.41s6.05,1.74,11.6,1.74H533v12.25H519.47c-6.38,0-11-.38-13.9-1.26q-9.91-3.32-12.56-14.46c-.66-2.86-1-7.67-1-14.45Z"/><path class="cls-1" d="M609.32,259.51V247.27h27.22c4.42,0,7.35-.51,8.79-1.51a7.27,7.27,0,0,0,3.21-6.48c0-3.31-1.24-5.76-3.72-7.3-1.4-.9-3.65-1.32-6.74-1.32H627c-6.72,0-11.6-1.4-14.53-4.24a17.87,17.87,0,0,1-4.39-6.74,23.77,23.77,0,0,1-1.56-8.66,25,25,0,0,1,3.68-13.28c2.36-3.86,6.2-6.12,11.46-6.77a79.24,79.24,0,0,1,7.92-.29h29.61V203H632.48a37,37,0,0,0-8,.6c-2.67.78-4,3.12-4,7,0,3.29,1.13,5.52,3.35,6.66,1.52.78,4,1.17,7.51,1.17H641c4.89,0,8.53.49,11,1.46a14.51,14.51,0,0,1,8.69,8.67,29.3,29.3,0,0,1,1.93,10.67,25,25,0,0,1-2.5,11.24c-2.33,4.7-5.85,7.49-10.52,8.4a57.48,57.48,0,0,1-10.21.65Z"/><polygon class="cls-1" points="743.56 190.7 743.56 259.53 730.81 259.53 730.81 231 707.84 231 707.84 259.53 695.09 259.53 695.09 190.7 707.84 190.7 707.84 218.75 730.81 218.75 730.81 190.7 743.56 190.7"/><rect class="cls-1" x="779.11" y="190.7" width="12.77" height="68.82"/><path class="cls-1" d="M839.39,209.1v50.42h-12V190.7h16.2q11.89,25.66,23.84,51.3V190.7h12v68.81H863.84q-12.22-25.21-24.44-50.42"/><path class="cls-1" d="M959.86,190.7V203H943.25c-4.33,0-7.5.33-9.45,1a10,10,0,0,0-4.94,4.05,13.19,13.19,0,0,0-1.78,4.09,50.64,50.64,0,0,0-.82,7.1h33.61v12.26H926.25c.45,5.9,1.93,10,4.5,12.34s6.92,3.45,13.08,3.45h16v12.25H943.25a65.42,65.42,0,0,1-11.84-.95,19.82,19.82,0,0,1-12.82-8.12q-6.78-9.48-6.79-25.71,0-18,9.59-28a18.74,18.74,0,0,1,7-4.71,30.39,30.39,0,0,1,10-1.34Z"/><path class="cls-2" d="M211.92,307.69c-2.11,6-4.21,11.95-6.32,18h12.34c-2-6-4-12-6-18m-17,32.28q6.81-18.35,13.65-36.66h6.92Q222,321.63,228.57,340H223c-1.11-3.19-2.25-6.4-3.36-9.59H204c-1.18,3.19-2.34,6.4-3.5,9.59Z"/><path class="cls-2" d="M257.89,303.3v21.78a30.6,30.6,0,0,0,.33,4.86,7.09,7.09,0,0,0,1.16,2.92c1.45,2,3.83,3,7.19,3q5.57,0,7.75-3.54a6.5,6.5,0,0,0,.85-2.64,41.68,41.68,0,0,0,.22-5.08V303.3h5.3v21.33a38.14,38.14,0,0,1-.49,7.06,10,10,0,0,1-5.43,7,18.28,18.28,0,0,1-8.79,1.85,15,15,0,0,1-7.75-1.73,11.13,11.13,0,0,1-5-6.93,28.72,28.72,0,0,1-.6-6.78V303.3Z"/><polygon class="cls-2" points="317.78 308.02 306.37 308.02 306.37 303.3 334.44 303.3 334.44 308.02 323.04 308.02 323.04 339.96 317.78 339.96 317.78 308.02"/><path class="cls-2" d="M373.92,307.45q-6.78,0-9.06,5.31a22.66,22.66,0,0,0-1.4,8.87c0,4.55.67,8,2,10.24,1.58,2.68,4.38,4,8.35,4,4.54,0,7.52-1.8,9-5.36a24.34,24.34,0,0,0,1.18-8.61c0-4.62-.58-8-1.78-10.11q-2.41-4.3-8.35-4.36m.07-4.64c6.19,0,10.55,2.08,13,6.24,1.81,3.06,2.69,7.29,2.69,12.7,0,6.66-1.48,11.49-4.49,14.48s-6.79,4.29-11.72,4.29q-8.45,0-12.28-5.32a17,17,0,0,1-2.49-5.8,32,32,0,0,1-.91-7.67,28.52,28.52,0,0,1,1-7.65,16.13,16.13,0,0,1,2.65-5.79,13.21,13.21,0,0,1,5.16-4.1,19.34,19.34,0,0,1,7.39-1.38"/><path class="cls-2" d="M476.72,335.23V340H466.49a23.5,23.5,0,0,1-7-.83c-3.42-1.06-6-3.58-7.59-7.55a27.77,27.77,0,0,1,.62-21,12.27,12.27,0,0,1,5-5.68q3-1.6,8.64-1.6h10.53V308H466.49a17.17,17.17,0,0,0-5.05.55,5.86,5.86,0,0,0-2.86,2.15,12.24,12.24,0,0,0-2,4.71,29.19,29.19,0,0,0-.73,6.59c0,4.5,1,8,2.85,10.33a7,7,0,0,0,3.07,2.26,17.15,17.15,0,0,0,5.2.6Z"/><path class="cls-2" d="M528,303.3V308h-9.59a17.51,17.51,0,0,0-4.11.39,6.8,6.8,0,0,0-2.61,1.43,8.36,8.36,0,0,0-2.38,3.57,19.14,19.14,0,0,0-1,5.71H528v4.72H508.29a15.05,15.05,0,0,0,1.57,7.12,7.35,7.35,0,0,0,3.07,3.3,11.5,11.5,0,0,0,5.17,1H528V340H517.12a18.18,18.18,0,0,1-6.7-1c-3.09-1.24-5.34-4-6.77-8.2a25.83,25.83,0,0,1-1.17-8.37,26.15,26.15,0,0,1,1.89-10.73,13.89,13.89,0,0,1,5.32-6.42c2.19-1.26,5.17-1.88,9-1.88Z"/><path class="cls-2" d="M561.33,310.71V340h-5.16V303.3h6.32q8.34,14.66,16.71,29.34V303.3h5.17V340h-6.13q-8.48-14.63-16.92-29.25"/><polygon class="cls-2" points="621.87 308.02 610.49 308.02 610.49 303.3 638.54 303.3 638.54 308.02 627.17 308.02 627.17 339.96 621.87 339.96 621.87 308.02"/><path class="cls-2" d="M669.9,319.77h9.41c2.74,0,4.58-.36,5.48-1.09a6,6,0,0,0,1.9-4.77c0-2.43-.67-4.12-2.07-5.07-.78-.55-2.57-.81-5.31-.81H669.9Zm0,4.72v15.46h-5.27V303.31h15c4.31,0,7.33.65,9.05,2a8.7,8.7,0,0,1,2.68,3.48,11.26,11.26,0,0,1,1,4.74,9.82,9.82,0,0,1-2.76,7.41,10.41,10.41,0,0,1-4.05,2.23,9.81,9.81,0,0,1,4.51,3.88c.81,1.49,1.33,4,1.52,7.39.13,2.23.25,3.57.29,4a6.13,6.13,0,0,0,.58,1.54h-5.37a3.29,3.29,0,0,1-.37-1.17c-.05-.37-.19-1.74-.38-4.07-.29-3.88-1.26-6.54-2.87-8s-4.36-2.21-8.3-2.21Z"/><path class="cls-2" d="M743.9,303.3V308h-9.59a18,18,0,0,0-4.14.39,6.8,6.8,0,0,0-2.59,1.43,8.43,8.43,0,0,0-2.37,3.57,18.22,18.22,0,0,0-1,5.71H743.9v4.72H724.22a14.63,14.63,0,0,0,1.55,7.12,7.61,7.61,0,0,0,3.09,3.3,11.53,11.53,0,0,0,5.17,1h9.86V340H733.06a18.07,18.07,0,0,1-6.7-1c-3.11-1.24-5.34-4-6.79-8.2a26.42,26.42,0,0,1-1.16-8.37,26.13,26.13,0,0,1,1.9-10.73,13.85,13.85,0,0,1,5.33-6.42c2.15-1.26,5.13-1.88,9-1.88Z"/><path class="cls-2" d="M945.28,163.92S893.7,93.94,731.19,109c0,0-136.95,4.33-199.88-42.09,0,0-152-86.19-264.52-52.78S171.93,61.19,21.51,105.78c0,0,129.67-23.72,195.7-51.42,0,0,121.37-35,247.89,14.91,0,0,110.19,53.71,177.95,54.39S855.4,94.26,945.28,163.92"/><path class="cls-3" d="M551.4,82S398.22-5.68,294.64,11c0,0,106-6.75,256.76,71.06"/></svg>